<svg xmlns="http://www.w3.org/2000/svg" version="1.1" viewBox="0 0 1080 1080" width="1080" height="1080">
<!--ITEM 1--><g><defs><clipPath id="clip-path-id-viewbox-item-1"><rect x="0.0" y="0.0" width="559.4" height="529.5"/></clipPath></defs><g transform="translate(83.0 55.0) rotate(0.0 471.5 447.0) scale(1.6857347157668932 1.688385269121813)"><g clip-path="url(#clip-path-id-viewbox-item-1)" transform="translate(-0.0 -0.0)"><path d="M155,526c-171.9-6.7-193-224.2-101.6-359.4C130.7,52.2,176.7,3.7,261.2,0.2c142.8-5.9,255.2,162.9,285.8,307.6  C591.6,518.3,527.6,540.4,155,526z" style="fill:#FECE2F;"/>
</g></g></g><!--ITEM 2--><g><defs><clipPath id="clip-path-id-crop-item-2"><rect transform="scale(0.9040395480225988 0.9062707182320442)" x="30" y="32" width="295" height="330.0"/></clipPath><clipPath id="clip-path-id-viewbox-item-2"><rect x="0.0" y="0.0" width="320.03" height="328.07"/></clipPath></defs><g clip-path="url(#clip-path-id-crop-item-2)" transform="translate(578.0 540.0) rotate(0.0 177.0 181.0) scale(1.106146298784489 1.1034230499588502)"><g clip-path="url(#clip-path-id-viewbox-item-2)" transform="translate(-0.0 -0.0)"><title>table</title><rect x="151.95" y="35.71" width="16.16" height="238.99" style="fill:#fece2f;"/><path d="M168.12,275.71H152a1,1,0,0,1-1-1v-239a1,1,0,0,1,1-1h16.17a1,1,0,0,1,1,1v239A1,1,0,0,1,168.12,275.71Zm-15.17-2h14.17v-237H153Z" fill="#000000"/><path d="M169.68,269.35H150.35L46.73,308.22C29.62,312.59,94.16,326.29,159.09,327c66.72.76,133.86-11.61,113.19-18.81Z" style="fill:#fece2f;"/><path d="M147.19,270.42s-62.3,28.6-60,36.51,8.94,14.56,25.53,17.62c-31.4-2-69.95-10.47-68.93-15.32C51.19,306.68,147.19,270.42,147.19,270.42Z" style="fill:#fff;"/><path d="M164.92,328.07c-2,0-3.91,0-5.84,0a560.79,560.79,0,0,1-79-6.66C66.45,319.17,43.5,314.8,43,310.2c-.23-1.95,2.5-2.69,3.48-2.94L150,268.41a1,1,0,0,1,.35-.06h19.33a1,1,0,0,1,.35.06l102.61,38.87c1.18.42,4.86,1.7,4.41,4.27-1,5.5-24.32,9.61-38.16,11.57A548.09,548.09,0,0,1,164.92,328.07ZM45,310c1.9,4.25,53.54,15.32,114.14,16,61.91.7,115-9.38,116-14.83.06-.33-.53-1.13-3.13-2L169.49,270.35h-19L47.08,309.15l-.1,0A4.77,4.77,0,0,0,45,310Z" fill="#000000"/><path d="M151.66,43.06s11.21,1.91,16,19.53c.32-8.81,1-20.3,1-20.3Z" fill="#000000"/><polygon points="167.23 269.91 243.06 321.23 267.57 315.74 170.81 269.4 167.23 269.91" fill="#000000"/><polygon points="165.41 269.78 230.81 322.51 212.43 324.68 162.35 269.78 165.41 269.78" fill="#000000"/><path d="M318.88,27.88V15h-89c-21.06-1-44.73-1.53-69.75-1.53S111.4,14,90.34,15H1V29.08h.27c3.13,8.07,73,14.53,158.82,14.53,87.78,0,158.94-6.76,158.94-15.1A1.61,1.61,0,0,0,318.88,27.88Z" fill="#000000"/><path d="M160.09,44.61C87,44.61,7.36,39.5.65,30A1,1,0,0,1,0,29.08V15a1,1,0,0,1,1-1H90.34c21.78-1,45.26-1.53,69.75-1.53s48,.52,69.79,1.53h89a1,1,0,0,1,1,1V27.69a2.42,2.42,0,0,1,.15.82c0,1.78,0,7.17-47.46,11.67C242.52,43,202.57,44.61,160.09,44.61ZM2,28.39a.94.94,0,0,1,.2.33c2.6,6.7,66.66,13.89,157.89,13.89,42.42,0,82.3-1.57,112.29-4.42C316.75,34,318,29.06,318,28.51a.6.6,0,0,0-.07-.23,1.1,1.1,0,0,1-.08-.4V16h-88c-21.84-1-45.29-1.53-69.75-1.53s-47.91.52-69.7,1.53H2Z" fill="#000000"/><ellipse cx="160.01" cy="16.09" rx="158.94" ry="15.09" style="fill:#fece2f;"/><path d="M160,32.18c-42.48,0-82.43-1.57-112.48-4.42C.07,23.25.07,17.86.07,16.09s0-7.16,47.46-11.67C77.58,1.57,117.53,0,160,0S242.45,1.57,272.5,4.42C320,8.93,320,14.32,320,16.09s0,7.16-47.45,11.67C242.45,30.61,202.5,32.18,160,32.18ZM160,2C117.59,2,77.71,3.57,47.72,6.42,3.36,10.63,2.07,15.54,2.07,16.09s1.29,5.46,45.65,9.68c30,2.84,69.87,4.41,112.29,4.41s82.31-1.57,112.3-4.41C316.67,21.55,318,16.64,318,16.09s-1.28-5.46-45.64-9.67C242.32,3.57,202.44,2,160,2Z" fill="#000000"/></g></g></g><!--ITEM 3--><g><defs><clipPath id="clip-path-id-viewbox-item-3"><rect x="0.0" y="0.0" width="125.884" height="68.0"/></clipPath></defs><g transform="translate(610.0 514.0) rotate(0.0 49.0 27.0) scale(0.7784944869880207 0.7941176470588235)"><g clip-path="url(#clip-path-id-viewbox-item-3)" transform="translate(-0.0 -0.0)"><g id="e401a90c-01ea-4fc1-93c0-caef99fbbbab-i3" data-name="Layer 2"><g id="b46077f4-3b5b-47f6-baac-43a3f58502ca-i3" data-name="cup_tea_coffee_3"><path d="M100.247,5.8c-1.526,23.892-15.522,42.549-28.416,52.19a6.029,6.029,0,0,0-2.447,4.827h0A3.681,3.681,0,0,1,65.7,66.5H34.065a3.681,3.681,0,0,1-3.681-3.681v-.742a6.032,6.032,0,0,0-2.335-4.742C15.625,47.588,2.886,29.1,1.507,5.688a3.988,3.988,0,0,1,4-4.188H96.255A4.018,4.018,0,0,1,100.247,5.8Z" fill="#fff"/><path d="M111.384,8.5c-3.815,0-8.223,2.67-11.931,3.97.789-4.67.431-6.47.431-6.47s1.353-5-5.324-4.5S24.884,2,24.884,2s-6-1-6.048,4.829C18.775,14.192,22.7,26.332,27.884,33c7,9,11,21,11,24,0,8,3,9,3,9l22.588.5s4.538,1.473,4.975-4.514,3.4-3.7,5.917-6.844c1.153-1.437,4.5-4.523,8.27-8.88,25.76,6.822,40.75-10.219,40.75-21.762C124.384,13.5,119.384,8.5,111.384,8.5ZM93.412,40.4h0a32.131,32.131,0,0,1-4.858-.382A54.205,54.205,0,0,0,95.884,26c.73-2.189,1.328-4.16,1.824-5.939a29.092,29.092,0,0,0,8.125-2.644c1.846-.809,4.373-1.917,5.551-1.917,2.389,0,6,0,6,9C117.384,30.915,108.923,40.4,93.412,40.4Z" fill="#ffffff"/><path d="M111.384,7c-2.96,0-6.01,1.34-8.96,2.63-.36.158-.723.316-1.084.472.175-1.383.313-2.784.4-4.2a5.589,5.589,0,0,0-1.491-4.167,5.432,5.432,0,0,0-4-1.731H5.506A5.552,5.552,0,0,0,1.485,1.735,5.375,5.375,0,0,0,.01,5.776C1.442,30.1,14.955,48.969,27.123,58.516a4.512,4.512,0,0,1,1.761,3.561v.742A5.186,5.186,0,0,0,34.064,68H65.7a5.187,5.187,0,0,0,5.181-5.181,4.506,4.506,0,0,1,1.845-3.626,71.055,71.055,0,0,0,11.7-11.169c.168.041.333.076.5.114a5,5,0,0,0,.863.2,44.3,44.3,0,0,0,9.207,1.006,34.051,34.051,0,0,0,18.45-5.11c7.44-4.73,12.44-12.66,12.44-19.73C125.884,9.27,116.8,7,111.384,7ZM65.7,65H34.064a2.183,2.183,0,0,1-2.18-2.181v-.742A7.546,7.546,0,0,0,31.8,61H68.118a7.346,7.346,0,0,0-.234,1.819A2.184,2.184,0,0,1,65.7,65Zm5.23-8.209A7.56,7.56,0,0,0,69.655,58H30.667a7.679,7.679,0,0,0-1.692-1.845C17.321,47.012,4.379,28.93,3,5.6a2.4,2.4,0,0,1,.664-1.806A2.536,2.536,0,0,1,5.506,3H96.255a2.456,2.456,0,0,1,1.81.784,2.543,2.543,0,0,1,.685,1.923C97.252,29.156,83.4,47.471,70.933,56.791Zm28.007-35.4a34.253,34.253,0,0,0,7.5-2.6c1.32-.58,4.08-1.79,4.94-1.79,2.11,0,4.5,0,4.5,7.5,0,5.17-7.51,14.4-22.47,14.4-.768,0-1.546-.042-2.332-.1A73.937,73.937,0,0,0,98.94,21.392ZM111.834,41.7A31.572,31.572,0,0,1,93.15,46.278a13.537,13.537,0,0,0,3.131-4.488c14.586-1.114,22.6-10.606,22.6-17.29,0-9.25-3.79-10.5-7.5-10.5-1.38,0-3.51.88-6.15,2.04l-.577.251a12.685,12.685,0,0,1,4.785-6.053A9.089,9.089,0,0,1,111.384,10c7.63,0,11.5,4.88,11.5,14.5C122.884,29.57,119.464,36.85,111.834,41.7Z" fill="#1a1a1a"/></g></g></g></g></g><!--ITEM 4--><g><defs><clipPath id="clip-path-id-viewbox-item-4"><rect x="0.0" y="0.0" width="224.322" height="245.226"/></clipPath></defs><g transform="translate(456.0 708.0) rotate(0.0 98.5 108.0) scale(0.8782018705254054 0.8808201414205672)"><g clip-path="url(#clip-path-id-viewbox-item-4)" transform="translate(-0.0 -0.0)"><title>dog_2</title><g id="Layer_2-i4" data-name="Layer 2"><g id="dog_2-i4"><path d="M80.886,113.826s-10.5-7.3-17.2-4.4-17.2,16.3-17.2,16.3-9.4,9.6-11.5,18a77.043,77.043,0,0,0-2,15.8s9.4,2.3,13.6-4.2c4.1-6.5,1.4-14.1,1.4-14.1l11.2-8.8s7.4-5.2,8.2-4.6c.8.7,9.4,7.1,9.4,7.1s5.8-6.1,6.2-10C83.686,117.926,80.886,113.826,80.886,113.826Z" fill="#fece2f"/><path d="M63.786,109.426c-6.7,2.9-17.2,16.3-17.2,16.3s-9.4,9.6-11.5,18a77.043,77.043,0,0,0-2,15.8,19.308,19.308,0,0,0,4,.4l-.3-.3s.7-12.6,2.7-17.2c4.9-10.8,18.9-27.6,23.1-30.3a20.457,20.457,0,0,1,7.2-3.1v-.1A10.981,10.981,0,0,0,63.786,109.426Z" fill="#fff"/><path d="M68.986,38.026s-36-6.5-51-1.5c-1.1.6-10.3,3.2-7.3,20.9s21.8,26.3,21.8,26.3,26.1,7.5,35.5,14c9.3,6.5,12.9,11.4,12.9,16.1,0,0,6.9,10.3-7.3,24.5,0,0-19.8,17.8-20.3,36.3-.6,18.4,1.2,17.9,1.2,17.9s11.8-.7,12.8-9.1c1-8.3-2.9-8.7-2.1-11.5s4-9.4,7.8-11.8a48.845,48.845,0,0,1,9.6-4.2s-1.1,18-4.2,23.6a23.638,23.638,0,0,0-10.7,20.2c.1,13.9,12.7,24.4,15.7,26.9l-14.3,5.9s-13.2-8-19-4.6c-5.9,3.4-11.3,7.7-9.7,12.8s16.7,3.6,16.7,3.6l16.3-.4,8.1-.1,17.4-.3s25.3,2.9,30.3-3.2c0,0,19.5,5.2,44.5-4.7s37-20.2,44-38.9,9.8-48.1-9.1-55.9-33.9,17.5-26.8,28.4c7.1,10.8,13,8.1,13,8.1s-5.1,23-15.3,34a79.409,79.409,0,0,1-21.4,16.2l-1.9-28.6s-5.5-39.3-8.6-52.9-13.4-53.6-22.5-69.2C115.986,61.026,96.486,41.726,68.986,38.026Z" fill="#fece2f"/><path d="M140.886,122.826s2.9,13.1-2.8,22.8-16.9,19.2-10.3,22.5c4.6,2.3,11.4-7.2,15.5-3.3,4.1,3.8-5.8,28.8,2.5,31.8,4.7,1.8,9-1.5,10.5,11.5a332.326,332.326,0,0,0-4.7-41.1C147.686,145.726,140.886,122.826,140.886,122.826Z" fill="#fff"/><path d="M99.286,176.126c-11.4-2.6-18.7,2.8-18.7,2.8l-1.6-.7a13.391,13.391,0,0,1-.6,1.2,23.638,23.638,0,0,0-10.7,20.2c.1,8.5,4.7,15.6,9.1,20.5l1.9.7c-4.7-5.6-6.1-16.8-5.1-23.5C76.086,180.626,99.286,176.126,99.286,176.126Z" fill="#fff"/><path d="M78.586,132.326a47.65,47.65,0,0,1-4.9,5.9s-19.8,17.8-20.3,36.3c-.5,15.4.7,17.6,1.1,17.9h.1c4.6-.7,3.1-7.5,2.4-14.9-.7-7.5,3.2-15.9,8.5-23.1s14.2-17.2,17.7-21.4.3-11.5.3-11.5C83.786,125.026,80.386,130.026,78.586,132.326Z" fill="#fff"/><path d="M214.286,144.326a18.451,18.451,0,0,0-5.7-3.6c-18.9-7.8-33.9,17.5-26.8,28.4,2.9,4.4,5.6,6.5,7.7,7.6l.6-.3s-6.2-11.5.7-21.7C197.986,144.226,206.786,143.526,214.286,144.326Z" fill="#fff"/><path d="M68.986,38.026s-36-6.5-51-1.5c-1.1.6-1.9,4.1-1.5,4.1,30.9-2.6,61.2,4.4,61.2,4.4l31.2,12A75.8,75.8,0,0,0,68.986,38.026Z" fill="#fff"/><path d="M89.986,35.626a2.3,2.3,0,0,1-2-1.3c-3.5-7.4-9.9-5.3-10.6-5a2.218,2.218,0,0,1-2.9-1.3,2.255,2.255,0,0,1,1.3-2.9c.1,0,10.8-4.1,16.3,7.2a2.272,2.272,0,0,1-1,3A2.607,2.607,0,0,1,89.986,35.626Z" fill="#191919"/><path d="M33.686,70.926a7.772,7.772,0,0,0,1.6.2,9.134,9.134,0,0,0,1.6.1,16.859,16.859,0,0,0,3.2-.1,13.679,13.679,0,0,0,2.9-.7,6.686,6.686,0,0,0,2.5-1.6h0a1.214,1.214,0,0,1,1.6.1,1.2,1.2,0,0,1,0,1.4,8.373,8.373,0,0,1-3.1,2.5,12.738,12.738,0,0,1-3.8,1.1,24.1,24.1,0,0,1-3.8,0l-1.8-.3a6.356,6.356,0,0,1-1.8-.6,1.068,1.068,0,0,1-.6-1.5,1.086,1.086,0,0,1,1.2-.7h.3Z" fill="#191919"/><path d="M221.886,155.226c-2.8-8.2-7.7-13.6-14.3-15.6-11.1-3.4-20.8,3.2-25.5,11.3-4.8,8.3-4.3,17.4,1.2,22.7a17.6,17.6,0,0,0,10,5,98.189,98.189,0,0,1-7.2,20.2c-4.8,9.7-13.3,22-27,26.9,0-6.5-.5-32.3-10-78.3-5.3-25.7-13.5-50.9-23-70.9-4.9-10.2-9.9-18.6-14.5-24.4l7.4-8.4s1.9,21,6.7,23.1,12.3-1.8,11.2-17.8c-1.1-16.1-5.7-21.5-7-22.8-1.2-1.2-7.7-1.8-10.6-.7-2.6.9-11.4,17.3-13.2,20.8a21.965,21.965,0,0,0-1.8-1.4c3.7-6.2,12.5-22.3,11.5-36.6-.6-8.2-11.3-13.5-16.6-.4-5.6,13.8-3.2,30-2.4,34.2a380.411,380.411,0,0,0-37.9-6.9c-16.5-2.1-28.8-2.4-36.8-1a13.226,13.226,0,0,0-3.5-9.6,11.014,11.014,0,0,0-8.5-4.1,9.946,9.946,0,0,0-7.5,4,11.273,11.273,0,0,0-1.3,12.4,11.392,11.392,0,0,0,8.7,6.2c-1.9,5.2-1.9,11.5.4,18a40.816,40.816,0,0,0,26.1,25.3c23.3,7.3,37.7,12.6,42.6,24.7.1.2.1.4.3.6a32.707,32.707,0,0,0-4.6-2.3c-5.6-2.2-10.7-2.1-14.9.3-8,4.6-21.4,23.4-24.6,29.8-3,5.9-3.3,19.3-3.3,19.8a1.23,1.23,0,0,0,.7,1.1,16.24,16.24,0,0,0,4.6.7,13.3,13.3,0,0,0,9.7-4c4.3-4.5,2.8-13.1,2.3-15.6,4.8-4.1,9-7.4,12.2-9.6l2.5-1.7a8.774,8.774,0,0,1,3.1-1.4h.1a1.421,1.421,0,0,1,.6.2l.4.2h.1a44.984,44.984,0,0,1,7.1,5.6c-.4.4-.8.9-1.2,1.3-7.9,8.8-22.6,25.3-21.9,38.3.7,15.1,1.2,18,1.3,18.1a1.172,1.172,0,0,0,1.1.9h0c.4,0,9.9-.2,13.4-8.4,1.8-4.1.3-7.8-.9-10.4a7.921,7.921,0,0,1-.8-2.6c.4-1.9,4-9.7,9.5-12.2,1.5-.7,3.5-1.5,5.6-2.4-.6,6.2-2,18.1-3.9,21.2a24.67,24.67,0,0,0-6.5,6.4c-5,7-5.7,15.9-2,24.9a40.378,40.378,0,0,0,11.6,15.5c-2.3.1-5.5.3-6.9.2a6.423,6.423,0,0,1-2.8-1.5c-1.7-1.2-3.8-2.7-6.6-2.7h-.1a10.2,10.2,0,0,0-8.7,4.9,12.745,12.745,0,0,0-5.8.3c-5.6,1.6-10.3,7.5-11.1,11.8a4.179,4.179,0,0,0,1.3,4.4c2.4,1.9,11.2,2.4,19.2,2.4,7.8,0,15-.4,15.2-.4,6.5-.4,16.3-.2,25.8,0,9,.2,17.5.3,21.4-.1a11.952,11.952,0,0,0,7.5-3.4,69.671,69.671,0,0,0,13.2,1.2,77.488,77.488,0,0,0,10.6-.7h.2a32.352,32.352,0,0,0,5.2-.7.365.365,0,0,0,.3-.1,101.23,101.23,0,0,0,15.9-4.3c16.3-5.9,29.8-15.5,38-27C223.286,194.226,227.386,171.226,221.886,155.226Zm-152.7-27.8c-1.9-1.5-5.2-3.7-6.9-2.8a2.263,2.263,0,0,0-.9,2.6c.1.9.3,1.8-1.3,3.1h0c-1.2.8-2.5,1.8-4.1,3-4.4,3.4-8.6,7-8.6,7.1a1.128,1.128,0,0,0-.3,1.1c0,.1,2.5,9.9-1.6,14.1a11.612,11.612,0,0,1-11.1,3c.1-3.1.7-13.4,3-18,3.3-6.4,16.4-24.7,23.8-28.9,3.6-2.1,8-2.1,12.9-.1a32.353,32.353,0,0,1,6.6,3.7.1.1,0,0,1,.1.1c2.8,9.3.1,12.9-2.8,16.6-.3.3-.6.7-1,1.2C75.486,132.126,71.986,128.926,69.186,127.426Zm141.2,81.1c-8,11.2-21.1,20.5-36.9,26.2a98.211,98.211,0,0,1-19.4,4.8c-.4,0-.9.1-1.3.1-7.2.3-13.9-2.2-16.6-6.6-3.9-6.3-9.1-7-9.4-7h-.2a1.135,1.135,0,0,0-.8.3,1.214,1.214,0,0,0-.1,1.6c3.1,3.5,4.3,7,3.2,9.7-1,2.6-3.9,4.4-7.6,4.8-3.8.4-12.2.3-21.1.1-9.6-.2-19.4-.4-26,0-13.8.9-30.3.6-32.8-1.5a2.605,2.605,0,0,1-.5-2.3c.7-3.6,4.9-8.6,9.6-10s9.4,1.3,12.8,3.2a12.143,12.143,0,0,0,3.3,1.6h.1c3.1.7,28.7.1,31.6,0h.4a.1.1,0,0,0,.1-.1h.1a.1.1,0,0,0,.1-.1l.1-.1a.1.1,0,0,1,.1-.1v-.1a.1.1,0,0,1,.1-.1v-.2h0v-.2h0v-.2h0v-.3a.1.1,0,0,0-.1-.1l-.1-.1a.1.1,0,0,0-.1-.1.1.1,0,0,1-.1-.1l-.1-.1h-.4a31.938,31.938,0,0,1-8.4-2.8l-3.2-1.8a38.8,38.8,0,0,1-15.5-17.8c-3.4-8.2-2.8-16.3,1.8-22.7,10-14,27.6-9.6,34.8-7.1a1.718,1.718,0,0,0,.8.2,1.11,1.11,0,0,0,1.1-1.1,1.172,1.172,0,0,0-.9-1.1c-.1,0-.1-.1-.3-.1a45.159,45.159,0,0,0-15.3-2.8h0a28.62,28.62,0,0,0-12.4,2.6,52.859,52.859,0,0,0,1.2-5.3c14.6-3.8,21.5-11.2,24.7-16.6a23.286,23.286,0,0,0,3.5-11.4,14.167,14.167,0,0,0,.8-1.8c2.5-5.6,5.3-13.8,4.9-21.9a1.1,1.1,0,0,0-2.2.2c.4,8.7-3.2,18.1-6.3,24.3l-3.2,5.4v-.2a45.4,45.4,0,0,1,.1-5.1,1.108,1.108,0,0,0-.9-1.2,1.146,1.146,0,0,0-1.3.7c-.8,2.4-4,6.5-6.2,9l.4-2.2c.1-.5.3-1,.4-1.5a1.145,1.145,0,0,0-.6-1.3,1.107,1.107,0,0,0-1.4.4c-1.3,1.9-7.2,4.4-12.2,6.4-.1,0-.2.1-.3.1a10.375,10.375,0,0,0-1,.4c-2.3.9-4.5,1.8-6.2,2.6-6.3,2.9-10.2,11.5-10.7,13.7-.3,1.2.3,2.4.9,4,1,2.4,2.3,5.4.9,8.7-2.4,5.4-8.1,6.7-10.5,6.9-.2-1.8-.6-6.2-1.1-16.8-.6-12.1,13.7-28.1,21.4-36.7,1.6-1.9,3-3.3,3.8-4.4,3.4-4.3,7.2-9.3,1.6-23-5.3-13-20.1-18.5-44-26a39.11,39.11,0,0,1-24.7-23.9c-2.2-6.3-2.2-12.4-.1-17.2a12.472,12.472,0,0,0,5.4-2.1,9.717,9.717,0,0,0,3.8-4.4c7.7-1.6,20.3-1.3,37.1.8,2.8.4,5.6.7,8.3,1.2-1.7,5.7-7.8,31.4,13.8,44.9,22.1,13.9,42.3,1.9,45.9-.4a324.878,324.878,0,0,1,20.2,64.7c8.8,42.5,10.3,70.5,9.9,79.4a.975.975,0,0,0,.4.9,1.449,1.449,0,0,0,.7.2h.3c11.5-3.5,21.3-12.6,28.6-26.2h0c.1-.1.6-1.1,1.3-2.5,4.3-7.7,8.9-12.9,14.7-16.6,7.6-4.9,7.1-10.5,7.1-10.7h0v-.1h0c0-.1,0-.1-.1-.2h0l-.1-.1h0l-.1-.1h0a.1.1,0,0,1-.1-.1h-.7a.1.1,0,0,0-.1.1h0l-.1.1a.1.1,0,0,0-.1.1,23.622,23.622,0,0,1-7.5,4.1c-5.9,1.9-11.2.6-15.8-3.7-5.5-5.2-4.4-13.7-.8-19.9,4.2-7.3,13-13.3,22.9-10.3,7.4,2.2,11,8.9,12.8,14.1C225.086,171.326,221.086,193.426,210.386,208.526Z" fill="#191919"/><circle cx="17.186" cy="46.226" r="1.3" fill="#191919"/><circle cx="13.786" cy="49.926" r="1.4" fill="#191919"/><circle cx="17.786" cy="53.526" r="1" fill="#191919"/><circle cx="29.486" cy="50.626" r="1.4" fill="#191919"/><circle cx="25.386" cy="44.926" r="1.4" fill="#191919"/><circle cx="22.186" cy="49.226" r="1.4" fill="#191919"/><circle cx="24.486" cy="55.526" r="1.3" fill="#191919"/><circle cx="29.286" cy="58.226" r="1.2" fill="#191919"/><circle cx="17.986" cy="59.326" r="1.3" fill="#191919"/><circle cx="35.886" cy="46.626" r="1.3" fill="#191919"/><circle cx="34.286" cy="55.426" r="1.3" fill="#191919"/><circle cx="88.986" cy="58.326" r="10" fill="#fff"/><path d="M80.586,51.826a9.926,9.926,0,0,0-2,5.3,9.895,9.895,0,0,0,14.2-8.2A9.69,9.69,0,0,0,80.586,51.826Z" fill="#191919"/><ellipse cx="7.678" cy="25.414" rx="4" ry="2" transform="translate(-13.115 8.907) rotate(-34.744)" fill="#fff"/></g></g></g></g></g><!--ITEM 5--><g><defs><clipPath id="clip-path-id-viewbox-item-5"><rect x="0.0" y="0.0" width="27.6" height="2.0"/></clipPath></defs><g transform="translate(562.0 566.0) rotate(0.0 188.0 14.0) scale(13.623188405797102 14.0)"><g clip-path="url(#clip-path-id-viewbox-item-5)" transform="translate(-0.0 -0.0)"><path d="M26.6,2H1C0.4,2,0,1.6,0,1s0.4-1,1-1h25.6c0.6,0,1,0.4,1,1S27.1,2,26.6,2z" style="fill:#1A1A1A;"/>
</g></g></g><!--ITEM 6--><g><defs><clipPath id="clip-path-id-viewbox-item-6"><rect x="0.0" y="0.0" width="539.658" height="806.889"/></clipPath></defs><g transform="translate(149.0 301.0) rotate(0.0 205.5 307.5) scale(0.7615934536317446 0.7621866204645249)"><g clip-path="url(#clip-path-id-viewbox-item-6)" transform="translate(-0.0 -0.0)"><g id="b29c6eed-8ab2-4e2c-b0d2-3911a1e1c2fa-i6" data-name="Layer 2"><g id="a0f46901-0c8f-417c-ae6a-a9abadedc8d5-i6" data-name="it_developer"><path d="M345.5,311.889a252.17,252.17,0,0,1,36,1s1.5-11.5-7.5-9.5S345.5,311.889,345.5,311.889Z" fill="#fece2f"/><path d="M372,287.389c-42.037-5.733-100-28-132-38s-46-7-46-7c17-4,36-26,72-74,39.477-52.636,13-130-35-130-41.049,0-130,37-177,114-59.186,96.964-49.5,170.5-24.5,240.5,0,0,66-53,183-72,2-3-7.126-15.427-8-17,60,4,94,0,114,1,7.84.392,27.5,11.5,36.5,5.5,8.362-5.575,24-9,25-4,2.386,11.929,4,15,10,15C393,314.389,394,290.389,372,287.389Z" fill="#fece2f"/><path d="M382.4,291.2c13.6,4.188,20.6,8.188,23.6,13.188,2.121,3.535,8.743,19.419,4,21-3,1-7-3-7-3" fill="#fece2f"/><path d="M408.979,327.048c-3.332,0-6.625-3.184-7.04-3.6a1.5,1.5,0,0,1,2.122-2.121c1.094,1.089,3.873,3.178,5.464,2.638.089-.029.274-.091.435-.528,1.261-3.407-3.03-14.585-5.246-18.278-2.809-4.681-9.826-8.545-22.753-12.526a1.5,1.5,0,0,1,.883-2.867c13.871,4.272,21.181,8.415,24.442,13.85,1.443,2.4,7.471,15.5,5.488,20.861a3.658,3.658,0,0,1-2.3,2.334A4.723,4.723,0,0,1,408.979,327.048Z" fill="#1a1a1a"/><path d="M381.013,290.369C398,298.389,404,314.389,403,321.389s-10.9-5.143-11.4-10" fill="#fece2f"/><path d="M401.3,325.012h-.062c-4.2-.083-10.706-9.3-11.134-13.469a1.5,1.5,0,0,1,2.985-.306c.252,2.461,3.678,7.634,6.544,9.884a3.344,3.344,0,0,0,1.668.891,4,4,0,0,0,.211-.834c.881-6.161-4.565-21.625-21.142-29.452a1.5,1.5,0,0,1,1.281-2.713c18.2,8.592,23.849,25.465,22.831,32.589C404.049,324.654,402.16,325.012,401.3,325.012Z" fill="#1a1a1a"/><path d="M135.037,201.306c-4.537,31.583-14.812,88.606,20.326,98.594,0,0-44.53-2.218-39.7-29.615S117.574,247.723,135.037,201.306Z" fill="#fff"/><path d="M223.232,261.525S282,281.389,306,282.389s23.372-2.846,44.686,1.077c-41.372-11.154-115.941-36.875-129.314-38.976C222.628,251.288,224.464,253.661,223.232,261.525Z" fill="#fff"/><path d="M29.994,392.844C64.5,362.889,179.779,320.156,235,319.389c72-1,149,9,171,24,53.194,36.268-57,220-116,268-16-10-61-43-61-43s76-97,91-148c0,0-16-1.324-49.752,10.088S194.546,453.1,112.5,451.889C44.5,450.889,53.5,436.889,29.994,392.844Z" fill="#fff"/><path d="M391.676,54.359c0-21-12.248-56.866-66.489-52.492s-64.74,30.62-63.805,48.04l22.6,78.011s27.248,15.117,57.157.413l0,0c8.953,3.111,13.793,4.762,18.168,1.262s0-7,2.143-15.752l-.017.011C381.9,94.25,391.676,67.122,391.676,54.359Z" fill="#fece2f"/><path d="M151.121,64.389s57.879-16,86.879-4,39,25,45,34c-7-22-7.482-43.538-43.759-55.214C213.5,30.889,151.121,64.389,151.121,64.389Z" fill="#fff"/><path d="M177.349,329.524C197.5,339.889,208.5,348.889,235.5,339.889s46-15,69-8,23,11,37,8,76.577-1.131,75.789,60.934c0,0,11.729-41.318-9.53-56.126s-84-21.237-117.631-24.022S212.2,317.159,177.349,329.524Z" fill="#fece2f"/><path d="M291,710.389c-4.472-4.472-20-24-25-54-1.264-7.582-2.4-13.5-3.392-18.119a30.043,30.043,0,0,1,8.974-28.412l6.743-6.223-33.752-23.923L230,599.389s-24,9-37,27c-7.242,10.027-8,25,0,33s29,14,40,24,38,52,53,48S296,715.389,291,710.389Z" fill="#fece2f"/><path d="M135.083,453.064c-5.883,0-11.31-.071-16.115-.175-4.566-.1-8.8-.128-12.9-.155-39.93-.268-56.458-.379-79.48-64.84C.422,314.63-5.147,246.411,52.72,151.608c26.7-43.735,64.368-71.123,91.271-86.4C174.758,47.74,208.1,36.889,231,36.889c19.1,0,35.985,11.846,46.313,32.5,12.9,25.809,14.782,66.709-10.113,99.9-30.454,40.606-48.809,62.765-64.355,71.22,7.5.292,19.783,1.88,37.6,7.448,7.634,2.386,16.91,5.525,26.733,8.849,32.583,11.025,73.133,24.748,105.023,29.1,7.94,1.083,13.769,4.816,17.325,11.1,4.875,8.611,3.987,20,1.851,24.98a1.5,1.5,0,0,1-1.379.909c-7.485,0-9.168-4.691-11.471-16.206-.04-.2-.342-.434-.809-.627-4.506-1.869-19.716.8-26.888,5.581-6.531,4.354-14.977,1.043-22.426-1.878-3.6-1.414-7.008-2.748-9.481-2.872-6.73-.337-16.674-.216-29.265-.065-24.913.3-59.035.711-98.76-1.936-59.946-4-72-10.96-76.334-25.056-2.123-6.9,1.633-37.369,16.674-73.517,13.135-31.569,38.358-75.614,83.925-106.17a1.5,1.5,0,0,1,1.67,2.492c-44.945,30.14-69.849,73.644-82.825,104.83-14.558,34.988-18.53,65.134-16.576,71.482,3.837,12.475,15.84,19.09,73.666,22.945,39.608,2.641,73.661,2.23,98.524,1.93,12.643-.152,22.627-.273,29.451.069,2.963.147,6.588,1.569,10.427,3.075,6.767,2.652,14.436,5.658,19.666,2.175,7.537-5.024,23.911-8.249,29.7-5.857a3.89,3.89,0,0,1,2.6,2.811c2.243,11.217,3.68,13.475,7.5,13.76,1.435-4.408,2.147-13.955-2.054-21.376-3.071-5.423-8.158-8.655-15.121-9.6-32.173-4.387-72.875-18.161-105.579-29.227-9.805-3.319-19.066-6.452-26.665-8.827-31.108-9.72-45.1-6.993-45.242-6.964a1.5,1.5,0,0,1-.655-2.928c16.587-3.9,36.157-26.791,71.144-73.44,24.126-32.167,22.321-71.775,9.829-96.759-9.8-19.6-25.7-30.841-43.629-30.841-22.413,0-55.186,10.7-85.527,27.93-26.6,15.1-63.831,42.165-90.193,85.351C-1.967,246.959,3.536,314.431,29.413,386.884c22.316,62.485,37.117,62.584,76.674,62.85,4.109.027,8.358.055,12.945.155,31.581.685,90.129-.079,127.481-12.919l5.331-1.838c29.889-10.327,60.793-21,91.387-16.226a1.5,1.5,0,0,1-.462,2.965c-29.858-4.667-60.4,5.889-89.946,16.1l-5.336,1.841C215.411,450.833,168.092,453.064,135.083,453.064Z" fill="#1a1a1a"/><path d="M290,612.889a1.494,1.494,0,0,1-.8-.228c-15.864-9.915-60.642-42.732-61.092-43.062a1.5,1.5,0,0,1-.294-2.135c.758-.968,75.994-97.358,90.742-147.5a1.5,1.5,0,1,1,2.878.846c-14,47.587-81.469,135.845-90.308,147.278,7.22,5.277,43.831,31.97,58.754,41.453C339.5,568.467,421.236,437.558,418.541,373.824c-.58-13.712-5.084-23.535-13.386-29.2-21.039-14.345-95.767-24.784-170.134-23.739-55.62.772-164.326,39.715-204.062,73.1a1.5,1.5,0,0,1-1.93-2.3c19.518-16.4,55.1-34.488,97.634-49.625,41.513-14.777,82.005-23.817,108.316-24.182,74.907-1.047,150.388,9.616,171.866,24.261,9.128,6.223,14.071,16.837,14.693,31.547,2.743,64.851-80.638,198.215-130.592,238.855A1.489,1.489,0,0,1,290,612.889Z" fill="#1a1a1a"/><path d="M283.92,733.154c-11.5,0-26.942-18.952-39.518-34.387-5.032-6.177-9.378-11.511-12.411-14.268-5.51-5.01-13.624-9-21.471-12.855-7.47-3.672-14.526-7.14-18.581-11.2-8.128-8.128-8.2-23.8-.155-34.938,12.323-17.064,33.887-26.034,37.27-27.364l14.313-19.327a1.5,1.5,0,1,1,2.41,1.785l-14.572,19.676a1.489,1.489,0,0,1-.678.512c-.236.089-23.737,9.064-36.311,26.474-7.218,9.995-7.288,23.929-.155,31.061,3.7,3.7,10.542,7.065,17.783,10.623,8.034,3.95,16.342,8.034,22.165,13.328,3.2,2.909,7.611,8.323,12.719,14.593,11.576,14.21,29.077,35.684,38.885,33.068,4.889-1.3,7.793-3.548,8.632-6.669,1.093-4.071-1.466-8.982-4.306-11.822-.195-.195-19.607-19.943-25.418-54.813-1.149-6.891-2.286-12.963-3.379-18.051a31.686,31.686,0,0,1,9.421-29.83l6.745-6.222a1.5,1.5,0,0,1,2.035,2.206L272.6,610.96a28.671,28.671,0,0,0-8.524,26.994c1.1,5.133,2.248,11.253,3.4,18.188,5.656,33.933,24.393,53,24.582,53.186,3.544,3.545,6.491,9.472,5.081,14.721-.782,2.909-3.282,6.8-10.755,8.789A9.543,9.543,0,0,1,283.92,733.154Z" fill="#1a1a1a"/><path d="M313.608,136.2a68.992,68.992,0,0,1-30.349-6.971,1.5,1.5,0,0,1,1.454-2.624c.291.161,29.483,15.9,59.84-1.8,30.378-17.72,45.624-54.713,45.624-70.443,0-7.064-1.515-24.891-15.543-37.833C363.3,6.066,346.706,1.637,325.307,3.363c-58.342,4.705-63.093,34.061-62.427,46.464a1.5,1.5,0,1,1-3,.161,39.125,39.125,0,0,1,11.649-30.053c11.006-11,29.017-17.586,53.533-19.563,22.255-1.793,39.624,2.9,51.6,13.949,14.9,13.746,16.509,32.579,16.509,40.038,0,15.387-14.227,53.851-47.113,73.035A63.655,63.655,0,0,1,313.608,136.2Z" fill="#1a1a1a"/><path d="M300.689,81.23a1.491,1.491,0,0,1-.855-.269c-6.068-4.222-8.21-10.462-5.729-16.694,2.624-6.586,9.657-11.192,15.65-10.3,3.579.542,9.742,3.456,10.8,16.9a1.5,1.5,0,0,1-1.377,1.613,1.518,1.518,0,0,1-1.614-1.377c-.666-8.43-3.6-13.46-8.26-14.165-4.635-.714-10.314,3.165-12.414,8.442-1.152,2.891-2.078,8.439,4.654,13.121a1.5,1.5,0,0,1-.858,2.732Z" fill="#1a1a1a"/><path d="M379.146,81.709c-4.884,0-7-3.944-9.058-7.8-2.316-4.324-4.709-8.8-11.107-10.217-15.131-3.359-39.471,5.746-39.714,5.838a1.5,1.5,0,0,1-1.063-2.8c1.031-.391,25.433-9.519,41.428-5.961,7.741,1.72,10.713,7.269,13.1,11.728,2.879,5.376,4.464,8.333,12.262,4.465a1.5,1.5,0,1,1,1.334,2.688A16.543,16.543,0,0,1,379.146,81.709Z" fill="#1a1a1a"/><path d="M353.182,93.728c-6.576-6.576-10.5-7-12.248-5.249s0,8.748,4.375,14,7,7.874,11.373,7S356.682,97.227,353.182,93.728Z" fill="#fff"/><path d="M295.443,76.856a1.145,1.145,0,0,1-.117,0c-11.817-.909-19.715-9.19-20.045-9.542a1.5,1.5,0,0,1,2.187-2.055h0c.073.078,7.461,7.788,18.089,8.607a1.5,1.5,0,0,1-.114,2.995Z" fill="#1a1a1a"/><path d="M355.063,111.146c-4.148,0-7-3.023-10.907-7.709-4.267-5.121-7.067-13.234-4.282-16.019,1.7-1.7,5.833-3.286,14.369,5.249h0c3.036,3.036,6.791,11.429,5.515,15.645a3.59,3.59,0,0,1-2.782,2.635A9.819,9.819,0,0,1,355.063,111.146ZM343.241,89.1a1.7,1.7,0,0,0-1.246.44c-.741.76.03,6.655,4.466,11.978,4.54,5.448,6.6,7.151,9.927,6.488.155-.031.349-.07.5-.562.832-2.749-2.22-10.109-4.765-12.655h0C348.063,90.729,345,89.1,343.241,89.1Z" fill="#1a1a1a"/><path d="M349.39,106.967s.669-8.687,8.355-4.839C358.244,107.2,358.721,112.332,349.39,106.967Z" fill="#1a1a1a"/><path d="M332.779,133.231a1.507,1.507,0,0,1-.547-.1,7.264,7.264,0,0,1-4.558-4.341c-1.213-3.513.94-7.23,1.033-7.386a1.5,1.5,0,0,1,2.586,1.52c-.036.063-1.54,2.719-.779,4.9a4.374,4.374,0,0,0,2.812,2.516,1.5,1.5,0,0,1-.547,2.9Z" fill="#1a1a1a"/><path d="M353.7,133.064c-3.521,0-7.649-1.435-13.053-3.313a1.5,1.5,0,0,1,.985-2.834c9.236,3.21,13.129,4.4,16.738,1.509,1.665-1.332,1.626-2.4,1.268-5.287a24.656,24.656,0,0,1,.355-9.65,1.5,1.5,0,1,1,2.914.712,21.752,21.752,0,0,0-.292,8.569c.354,2.855.689,5.552-2.37,8A9.982,9.982,0,0,1,353.7,133.064Z" fill="#1a1a1a"/><path d="M369.805,88.479c-1.75-1.75-4.812-3.937-8.311-2.188s4.374,7.874,6.124,7.874S373.742,92.416,369.805,88.479Z" fill="#1a1a1a"/><path d="M381.2,314.889c-.052,0-.1,0-.156-.008-9.513-.98-37.762-.992-38.046-.992a1.5,1.5,0,0,1,0-3c1.167,0,28.688.012,38.354,1.008a1.5,1.5,0,0,1-.152,2.992Z" fill="#1a1a1a"/><path d="M435,340.389l-129.208-21.3a6.039,6.039,0,0,1-5.032-6.484h0a6.039,6.039,0,0,1,7.084-5.418L437,330.389" fill="#fece2f"/><path d="M435,341.889a1.589,1.589,0,0,1-.246-.02l-129.208-21.3a7.54,7.54,0,1,1,2.561-14.86l129.157,23.2a1.5,1.5,0,1,1-.532,2.953l-129.156-23.2a4.541,4.541,0,0,0-5.324,4.074,4.562,4.562,0,0,0,3.782,4.873l129.208,21.3a1.5,1.5,0,0,1-.242,2.981Z" fill="#1a1a1a"/><path d="M444.1,328.837l83.353-101.124a6.04,6.04,0,0,1,8.132-1.116h0a6.039,6.039,0,0,1,1.15,8.844L452,335.389" fill="#fece2f"/><path d="M452,336.889a1.5,1.5,0,0,1-1.144-2.47l84.733-99.948a4.538,4.538,0,0,0-.865-6.646,4.56,4.56,0,0,0-6.112.839L445.255,329.791a1.5,1.5,0,0,1-2.315-1.908l83.354-101.124a7.538,7.538,0,1,1,11.584,9.649l-84.733,99.951A1.5,1.5,0,0,1,452,336.889Z" fill="#1a1a1a"/><circle cx="443" cy="337.389" r="9" fill="#fece2f"/><path d="M443,347.889a10.5,10.5,0,1,1,10.5-10.5A10.512,10.512,0,0,1,443,347.889Zm0-18a7.5,7.5,0,1,0,7.5,7.5A7.508,7.508,0,0,0,443,329.889Z" fill="#1a1a1a"/><path d="M302.343,71.689a1.5,1.5,0,0,1-1.482-1.276,6.105,6.105,0,0,1,3.21-6.473,7.923,7.923,0,0,1,8.962,1.067,1.5,1.5,0,1,1-1.967,2.266,4.9,4.9,0,0,0-5.548-.7,3.144,3.144,0,0,0-1.69,3.395,1.5,1.5,0,0,1-1.259,1.708A1.574,1.574,0,0,1,302.343,71.689Z" fill="#1a1a1a"/><path d="M177.35,303.855a1.5,1.5,0,0,1-.482-2.921c2.28-.773,55.712-19.351,43.669-55.85a1.5,1.5,0,0,1,2.85-.939c10.351,31.374-23.765,52.244-45.556,59.631A1.524,1.524,0,0,1,177.35,303.855Z" fill="#1a1a1a"/><path d="M204,277.889a1.5,1.5,0,0,1-.855-2.733c12.1-8.377,9.008-31.621,8.976-31.855a1.5,1.5,0,0,1,2.971-.414c.143,1.029,3.364,25.317-10.239,34.735A1.488,1.488,0,0,1,204,277.889Z" fill="#1a1a1a"/><polyline points="144 492.389 144 582.389 165 582.389 165 492.389" fill="#fece2f"/><path d="M165,583.889H144a1.5,1.5,0,0,1-1.5-1.5v-90a1.5,1.5,0,0,1,3,0v88.5h18v-88.5a1.5,1.5,0,0,1,3,0v90A1.5,1.5,0,0,1,165,583.889Z" fill="#1a1a1a"/><path d="M159,301.889a1.5,1.5,0,0,1-.292-2.971c.2-.039,19.812-4.043,31.394-12.729a1.5,1.5,0,1,1,1.8,2.4c-12.132,9.1-31.776,13.105-32.606,13.271A1.571,1.571,0,0,1,159,301.889Z" fill="#1a1a1a"/><path d="M94,477.389c24,5,26.863,19,60,19s36-14,60-19" fill="#fece2f"/><path d="M154,497.889c-20.195,0-29.592-5.228-38.679-10.282-6-3.336-12.195-6.785-21.627-8.749a1.5,1.5,0,1,1,.612-2.938c9.879,2.059,16.282,5.62,22.473,9.065,9.157,5.093,17.8,9.9,37.221,9.9s28.064-4.811,37.221-9.9c6.191-3.445,12.594-7.006,22.473-9.065a1.5,1.5,0,0,1,.612,2.938c-9.432,1.964-15.631,5.413-21.627,8.749C183.592,492.661,174.2,497.889,154,497.889Z" fill="#1a1a1a"/><path d="M264.194,647.669a1.475,1.475,0,0,1-.364-.045c-17.9-4.463-22.858-19.67-26.842-31.889-2.233-6.852-4.163-12.77-7.794-15.08a1.5,1.5,0,0,1,1.612-2.532c4.539,2.889,6.622,9.281,9.035,16.682,3.949,12.115,8.427,25.848,24.716,29.909a1.5,1.5,0,0,1-.363,2.955Z" fill="#1a1a1a"/><rect x="28" y="451.389" width="252" height="26" rx="13" fill="#1a1a1a"/><path d="M267,478.889H41a14.5,14.5,0,0,1,0-29H267a14.5,14.5,0,0,1,0,29Zm-226-26a11.5,11.5,0,0,0,0,23H267a11.5,11.5,0,0,0,0-23Z" fill="#1a1a1a"/><path d="M385.661,78.306c-16.514,8.2-10.607-12.574-26.354-16.073s-40.572,5.9-40.572,5.9S315,48.763,301.281,57.685s-3.215,18.546-3.215,18.546-18.468-1.2-25.544-12.851-11.2-14.27-11.2-14.27-1.773-32.511,37.17-42.5,64.424-4.168,77.929,9.544S397.143,50.637,385.661,78.306Z" fill="#1a1a1a"/><path d="M212.194,322.827a1.513,1.513,0,0,1-.221-.016,1.5,1.5,0,0,1-1.264-1.7c1.063-7.2-7.666-15.791-7.755-15.877a1.5,1.5,0,0,1,2.091-2.152c.405.394,9.92,9.747,8.631,18.468A1.5,1.5,0,0,1,212.194,322.827Z" fill="#1a1a1a"/><path d="M343.5,418.889c13.865,1.891,1.761,15.695-19,24-10,4-23.477,21.446-26,26,0,0,21-42,22-50Z" fill="#1a1a1a"/><path d="M216.5,87.889c-14-5-29,9-30,18s-9.5,12.5-17.5,19.5-2,14-8,20c-26.618,26.618-30.5,49.5-38.5,87.5,4-17,28-63,28-63l31-41,35-26C220.5,99.889,230.5,92.889,216.5,87.889Z" fill="#1a1a1a"/><path d="M293.541,131.731s.978-7.1-10.986-46.393a75.572,75.572,0,0,1,1.293,43.128C290.412,130.728,293.541,131.731,293.541,131.731Z" fill="#1a1a1a"/><path d="M232.9,208.762c-19.989,20.127-61.9,22.627-61.9,34.627s20.5-2.5,40.5.5" fill="#1a1a1a"/><path d="M291,710.389c-4.472-4.472-20-24-25-54-1.264-7.582-.508-4.884-1.5-9.5-22-3-26-39-34.5-47.5-11.5,3.5-24,9-37,27-7.242,10.027-8,25,0,33s29,14,40,24,38,52,53,48S296,715.389,291,710.389Z" fill="#1a1a1a"/><path d="M284.672,676.138c-4.08,0-7.311-5.089-10.705-10.438-3.269-5.147-6.973-10.983-11.261-11.84l.588-2.942c5.546,1.11,9.615,7.52,13.205,13.175,3.225,5.078,6.26,9.879,8.987,8.887,6.269-2.287,5.578-7.092,4.61-9.752-3.12-8.567-16.457-17.247-31.083-11.929l-1.026-2.82c16.38-5.948,31.38,3.979,34.928,13.722,2.233,6.131-.22,11.341-6.4,13.6A5.336,5.336,0,0,1,284.672,676.138Z" fill="#1a1a1a"/><path d="M284.566,687.916c-4.669,0-8.078-6.707-12-14.423-3.517-6.92-7.5-14.762-11.859-15.633l.588-2.942c5.781,1.156,9.932,9.321,13.946,17.216,3.128,6.153,6.7,13.114,9.573,12.767.149-.019.4-.05.608-.661,1.279-3.694-2.863-15.529-10.384-23.138-4.006-4.053-10.394-8.351-18.062-5.79l-.95-2.846c7.234-2.414,14.543-.152,21.146,6.527,8.273,8.371,12.829,21.194,11.085,26.23a3.683,3.683,0,0,1-3.069,2.654A4.85,4.85,0,0,1,284.566,687.916Z" fill="#1a1a1a"/><path d="M281.5,567.389a1.5,1.5,0,0,1-1.118-2.5c1.089-1.22,108.8-122.555,99.582-166.909a17.005,17.005,0,0,0-10.092-12.73c-26.5-12.235-71.425-4.748-114.864,2.489-41.145,6.857-80.006,13.334-101.653,3a1.5,1.5,0,1,1,1.292-2.707c20.79,9.921,59.2,3.523,99.868-3.254,43.888-7.313,89.272-14.875,116.615-2.254A20.074,20.074,0,0,1,382.9,397.37c9.523,45.826-95.793,164.489-100.281,169.518A1.5,1.5,0,0,1,281.5,567.389Z" fill="#1a1a1a"/><path d="M237.062,589.854S269,600.389,278,604.389c-13-11-34-24-34-24Z" fill="#1a1a1a"/><path d="M209.5,322.889c-33.854,3.061-148.5,59.5-171.5,88.5l-8-19S99.354,341.828,209.5,322.889Z" fill="#1a1a1a"/><path d="M302.5,805.389h-13a4,4,0,0,1-4-4V774.772a29.471,29.471,0,0,0-11.21-23.208l-96.7-76.743a50.662,50.662,0,0,1-19.077-36.85l20.966-1.164a29.654,29.654,0,0,0,11.165,21.564l96.7,76.743A50.358,50.358,0,0,1,306.5,774.772v26.617A4,4,0,0,1,302.5,805.389Z" fill="#fece2f"/><path d="M5.5,805.389h13a4,4,0,0,0,4-4V774.772a29.471,29.471,0,0,1,11.21-23.208l96.7-76.743a50.662,50.662,0,0,0,19.077-36.85l-20.966-1.164a29.654,29.654,0,0,1-11.165,21.564l-96.7,76.743A50.358,50.358,0,0,0,1.5,774.772v26.617A4,4,0,0,0,5.5,805.389Z" fill="#fece2f"/><path d="M1.5,793.889h21a0,0,0,0,1,0,0v8a4,4,0,0,1-4,4H5.5a4,4,0,0,1-4-4v-8A0,0,0,0,1,1.5,793.889Z" fill="#1a1a1a"/><path d="M302.5,806.889h-13a5.507,5.507,0,0,1-5.5-5.5V774.772a27.979,27.979,0,0,0-10.643-22.033L176.661,676a52.169,52.169,0,0,1-19.642-37.941,1.5,1.5,0,0,1,1.415-1.581l20.966-1.164a1.488,1.488,0,0,1,1.581,1.415,28.159,28.159,0,0,0,10.6,20.473l96.7,76.743A51.847,51.847,0,0,1,308,774.772v26.617A5.507,5.507,0,0,1,302.5,806.889Zm-142.38-167.5a49.168,49.168,0,0,0,18.406,34.262l96.7,76.743A30.965,30.965,0,0,1,287,774.772v26.617a2.5,2.5,0,0,0,2.5,2.5h13a2.5,2.5,0,0,0,2.5-2.5V774.772a48.868,48.868,0,0,0-18.588-38.483l-96.7-76.743a31.155,31.155,0,0,1-11.611-21.16Z" fill="#1a1a1a"/><path d="M18.5,806.889H5.5a5.507,5.507,0,0,1-5.5-5.5V774.772A51.847,51.847,0,0,1,19.723,733.94l96.7-76.743a28.159,28.159,0,0,0,10.6-20.473,1.491,1.491,0,0,1,1.581-1.415l20.966,1.164a1.5,1.5,0,0,1,1.415,1.581A52.169,52.169,0,0,1,131.339,676l-96.7,76.744A27.979,27.979,0,0,0,24,774.772v26.617A5.507,5.507,0,0,1,18.5,806.889Zm111.4-168.5a31.155,31.155,0,0,1-11.611,21.16l-96.7,76.743A48.868,48.868,0,0,0,3,774.772v26.617a2.5,2.5,0,0,0,2.5,2.5h13a2.5,2.5,0,0,0,2.5-2.5V774.772a30.965,30.965,0,0,1,11.777-24.383l96.7-76.743a49.168,49.168,0,0,0,18.406-34.262Z" fill="#1a1a1a"/><path d="M144,616.389v185a4,4,0,0,0,4,4h13a4,4,0,0,0,4-4v-185" fill="#fece2f"/><path d="M195.467,294S277.5,305.889,314.5,303.889c-63,2-120.79.932-141.4-1.534C182.9,301.423,195.467,294,195.467,294Z" fill="#1a1a1a"/><path d="M144,793.889h21a0,0,0,0,1,0,0v8a4,4,0,0,1-4,4H148a4,4,0,0,1-4-4v-8A0,0,0,0,1,144,793.889Z" fill="#1a1a1a"/><path d="M161,806.889H148a5.506,5.506,0,0,1-5.5-5.5v-185a1.5,1.5,0,0,1,3,0v185a2.5,2.5,0,0,0,2.5,2.5h13a2.5,2.5,0,0,0,2.5-2.5v-185a1.5,1.5,0,0,1,3,0v185A5.506,5.506,0,0,1,161,806.889Z" fill="#1a1a1a"/><path d="M268.5,594.889c14,1,10.665,6.691,31-15,15-16,24-13,39-32s35.113-44.5,35.113-44.5-57.113,89.5-84.113,107.5A182.968,182.968,0,0,1,268.5,594.889Z" fill="#1a1a1a"/><rect x="128" y="582.389" width="52" height="66" rx="3" fill="#fece2f"/><path d="M177,649.889H131a4.505,4.505,0,0,1-4.5-4.5v-60a4.5,4.5,0,0,1,4.5-4.5h46a4.5,4.5,0,0,1,4.5,4.5v60A4.505,4.505,0,0,1,177,649.889Zm-46-66a1.5,1.5,0,0,0-1.5,1.5v60a1.5,1.5,0,0,0,1.5,1.5h46a1.5,1.5,0,0,0,1.5-1.5v-60a1.5,1.5,0,0,0-1.5-1.5Z" fill="#1a1a1a"/><path d="M356.837,126.364a3.194,3.194,0,0,1-2.556-1.029c-.818-.941-1.337-2.8.839-6.31a36.908,36.908,0,0,1,14.219-12.344c3.782-1.66,5.548-.885,6.366.057h0c.818.942,1.337,2.8-.839,6.311a36.888,36.888,0,0,1-14.219,12.344A9.693,9.693,0,0,1,356.837,126.364Zm-.272-3.011c.854.249,4.784-.926,10.026-5.476s6.959-8.273,6.83-9.156c-.858-.263-4.783.925-10.025,5.476S356.437,122.47,356.565,123.353Z" fill="#1a1a1a"/><path d="M372.5,115.345a1.5,1.5,0,0,1-1.154-.541c-.3-.356-29.845-35.688-52.846-45.059a1.5,1.5,0,0,1,1.133-2.777c23.7,9.654,52.793,44.442,54.019,45.918a1.5,1.5,0,0,1-1.152,2.459Z" fill="#1a1a1a"/><path d="M144,510.065s13-8.558,21-2.117V495.79s-15,1.624-21,.111Z" fill="#1a1a1a"/><path d="M144,511.566a1.5,1.5,0,0,1-1.5-1.5V495.9a1.5,1.5,0,0,1,1.866-1.455c5.671,1.429,20.325-.132,20.474-.148a1.5,1.5,0,0,1,1.661,1.491v12.157a1.5,1.5,0,0,1-2.44,1.168c-7.069-5.69-19.115,2.124-19.236,2.2A1.5,1.5,0,0,1,144,511.566Zm1.5-13.861v9.767c3.824-2,11.624-5.212,18-2.219v-7.808C159.823,497.782,150.961,498.456,145.5,497.705Z" fill="#1a1a1a"/><path d="M128,593.359s28.5-6.411,52-.941c0-6.059,2.618-9.529-5.441-10.029s-42,0-42,0-6.059-.5-5.059,5.5S128,593.359,128,593.359Z" fill="#fff"/><path d="M177,649.889H131a4.505,4.505,0,0,1-4.5-4.5v-60a4.5,4.5,0,0,1,4.5-4.5h46a4.5,4.5,0,0,1,4.5,4.5v60A4.505,4.505,0,0,1,177,649.889Zm-46-66a1.5,1.5,0,0,0-1.5,1.5v60a1.5,1.5,0,0,0,1.5,1.5h46a1.5,1.5,0,0,0,1.5-1.5v-60a1.5,1.5,0,0,0-1.5-1.5Z" fill="#1a1a1a"/><path d="M46.506,331.892a11,11,0,0,1-10.047-6.511c-18.656-41.7-.981-88.485-.22-90.457a11,11,0,0,1,20.53,7.909h0c-.153.4-15.088,40.348-.228,73.564a11.006,11.006,0,0,1-10.035,15.5Z" fill="#fff"/><path d="M61.5,211.892a11.007,11.007,0,0,1-10.1-15.336c2.533-5.912,8.963-19.386,15.159-28.061a11,11,0,0,1,17.9,12.787c-4.19,5.868-9.743,16.713-12.841,23.94A11,11,0,0,1,61.5,211.892Z" fill="#fff"/><path d="M285.5,793.889h21a0,0,0,0,1,0,0v8a4,4,0,0,1-4,4h-13a4,4,0,0,1-4-4v-8A0,0,0,0,1,285.5,793.889Z" fill="#1a1a1a"/></g></g></g></g></g><!--ITEM 7--><g><defs><clipPath id="clip-path-id-viewbox-item-7"><rect x="0.0" y="0.0" width="205.03" height="170.98"/></clipPath></defs><g transform="translate(711.0 429.0) rotate(0.0 84.0 70.0) scale(0.8193922840559918 0.8188092174523337)"><g clip-path="url(#clip-path-id-viewbox-item-7)" transform="translate(-0.0 -0.0)"><title>teapot-05</title><ellipse cx="105.34" cy="95.6" rx="61.25" ry="61.13" style="fill:#fece2f;"/><path d="M204.74,54.94a3.31,3.31,0,0,1-2.25,2,11.45,11.45,0,0,0-9,9.87,52.78,52.78,0,0,0-.15,5.63c0,13.86-.07,46.34-25.17,54.75A32.15,32.15,0,0,1,158,129h-1.62l-.69-.06c.49-.75,1-1.51,1.4-2.28a57.34,57.34,0,0,0,2.69-5.16l.12-.26c.11-.24.22-.48.32-.72l.42-1a60.06,60.06,0,0,0,4.7-21.84c0-.61,0-1.22,0-1.83,0-.34,0-.68,0-1s0-.63,0-.95a13,13,0,0,0,.7-1.7c.05-.16.11-.32.16-.49s.09-.31.14-.47l.63-2.16c6.33-21.66,14.19-42.37,31.51-44a3.41,3.41,0,0,1,3.33,1.75l2.78,5.1A3.53,3.53,0,0,1,204.74,54.94Z" style="fill:#fece2f;"/><path d="M57.13,59.77h0c-.2.26-.39.53-.59.8a60.29,60.29,0,0,0-8.87,17.77h0c-.12.39-.24.79-.35,1.18l-.18.06c-.1-.24-.28-.65-.56-1.18-.18-.33-.4-.72-.67-1.13a14.16,14.16,0,0,0-11.54-6.56c-4.75-.2-10.21,3.48-12.41,8.45-2,4.55-.83,9.06,3.52,13.4A35.21,35.21,0,0,0,43.26,102l.91.19.1,0,1,.18c.2,0,.39.07.59.09.14.36.28.73.43,1.08-.3,0-.6-.08-.91-.13a60.24,60.24,0,0,0,3.37,13.76q.91,2.46,2,4.8c.15.34.32.68.48,1l-1.13,0h-.4l-.74,0c-10.69-.61-25.55-4-37.7-16.14-10.18-10.17-13-23.5-7.67-35.64,5.57-12.6,18.6-21,31.66-20.34a33.67,33.67,0,0,1,20.31,7.71c.25.21.5.42.74.64S56.88,59.53,57.13,59.77Z" style="fill:#fece2f;"/><path d="M46.29,76.1a15.05,15.05,0,0,0-11.88-6.38c-5.18-.21-11,3.76-13.37,9-2.2,5-.95,9.85,3.72,14.52A36.37,36.37,0,0,0,43.36,103l.93.18h.09c0-.35-.08-.69-.11-1l-.1,0-.91-.19c0-.34-.07-.69-.09-1a34.09,34.09,0,0,1-17-9c-4-4-5.14-8.16-3.31-12.3,2-4.59,7.05-8.06,11.45-7.85a13.19,13.19,0,0,1,11.19,6.86c.12-.44.26-.87.39-1.3.27.41.49.8.67,1.13.12-.43.26-.86.4-1.29C46.77,76.8,46.55,76.45,46.29,76.1Zm-12-4.38a13.19,13.19,0,0,1,11.19,6.86c.12-.44.26-.87.39-1.3.27.41.49.8.67,1.13.12-.43.26-.86.4-1.29-.2-.32-.42-.67-.68-1a15.05,15.05,0,0,0-11.88-6.38c-5.18-.21-11,3.76-13.37,9-2.2,5-.95,9.85,3.72,14.52A36.37,36.37,0,0,0,43.36,103l.93.18h.09l1,.18c.31.05.61.1.91.13-.15-.35-.29-.72-.43-1.08-.2,0-.39-.05-.59-.09l-1-.18-.1,0-.91-.19c0-.34-.07-.69-.09-1a34.09,34.09,0,0,1-17-9c-4-4-5.14-8.16-3.31-12.3C24.9,75,29.92,71.51,34.32,71.72ZM47,77.12c-.2-.32-.42-.67-.68-1a15.05,15.05,0,0,0-11.88-6.38c-5.18-.21-11,3.76-13.37,9-2.2,5-.95,9.85,3.72,14.52A36.37,36.37,0,0,0,43.36,103l.93.18h.09l1,.18c.31.05.61.1.91.13-.15-.35-.29-.72-.43-1.08s-.27-.71-.39-1.06l-.3-.05-1-.19-.1,0c-.3-.06-.6-.12-.91-.2a34.09,34.09,0,0,1-17-9c-4-4-5.14-8.16-3.31-12.3,2-4.59,7.05-8.06,11.45-7.85a13.19,13.19,0,0,1,11.19,6.86,11.4,11.4,0,0,1,.64,1.28l.09.22.94-.34,0,.12.09-.33c.11-.39.23-.79.35-1.18C47.48,78,47.26,77.58,47,77.12ZM57,58.29c-.24-.22-.49-.43-.74-.63a34.67,34.67,0,0,0-20.88-7.92c-13.46-.63-26.88,8-32.61,20.93C-2.8,83.21.14,97,10.62,107.42c12.39,12.4,27.44,15.92,38.91,16.47l.71,0h0l.43,0,1.13,0-.51-1c-.16-.33-.33-.67-.48-1l-1.13,0-.38,0-.75,0c-11-.7-25-4.25-36.53-15.82C2.17,96.14-.62,83.23,4.58,71.48S21.73,51.71,33.93,51.71c.45,0,.89,0,1.34,0A32.62,32.62,0,0,1,55,59.26c.25.2.5.41.74.63s.52.46.77.69c.2-.27.39-.54.59-.8h0c.21-.27.41-.52.61-.79C57.49,58.74,57.24,58.51,57,58.29ZM34.32,71.72a13.19,13.19,0,0,1,11.19,6.86,11.4,11.4,0,0,1,.64,1.28l.09.22.94-.34,0,.12.09-.33c.11-.39.23-.79.35-1.18-.18-.35-.4-.77-.69-1.23s-.42-.67-.68-1a15.05,15.05,0,0,0-11.88-6.38c-5.18-.21-11,3.76-13.37,9-2.2,5-.95,9.85,3.72,14.52A36.37,36.37,0,0,0,43.36,103l.93.18h.09l1,.18c.31.05.61.1.91.13-.15-.35-.29-.72-.43-1.08-.2,0-.39-.05-.59-.09l-1-.18-.1,0-.09-1c-.3-.06-.6-.12-.91-.2a34.09,34.09,0,0,1-17-9c-4-4-5.14-8.16-3.31-12.3C24.9,75,29.92,71.51,34.32,71.72Zm12,4.38a15.05,15.05,0,0,0-11.88-6.38c-5.18-.21-11,3.76-13.37,9-2.2,5-.95,9.85,3.72,14.52A36.37,36.37,0,0,0,43.36,103l.93.18h.09c0-.35-.08-.69-.11-1l-.1,0-.91-.19c0-.34-.07-.69-.09-1a34.09,34.09,0,0,1-17-9c-4-4-5.14-8.16-3.31-12.3,2-4.59,7.05-8.06,11.45-7.85a13.19,13.19,0,0,1,11.19,6.86c.12-.44.26-.87.39-1.3.27.41.49.8.67,1.13.12-.43.26-.86.4-1.29C46.77,76.8,46.55,76.45,46.29,76.1Z" style="fill:#1a1a1a;"/><path d="M45.12,100.21c0,.37.05.74.09,1.11l.3.05C45.37,101,45.24,100.6,45.12,100.21Zm74.72-54.4,0,0,.33,0Zm0,0,0,0,.33,0Zm-74.72,54.4c0,.37.05.74.09,1.11l.3.05C45.37,101,45.24,100.6,45.12,100.21Zm74.72-54.4,0,0,.33,0Zm0,0,0,0,.33,0ZM47.18,79.74l-.94.34-.09-.22A60.77,60.77,0,0,0,44,95.39c0,1.91,0,3.82.21,5.74,0,.35,0,.69.09,1l1,.18c.2,0,.39.07.59.09-.14-.35-.27-.71-.39-1.06s-.27-.77-.39-1.16h0a60.05,60.05,0,0,1,2.1-20.34Zm119,11.94a59,59,0,0,0-.72-5.88,2.38,2.38,0,0,0-.06-.37,62.23,62.23,0,0,0-2.93-10.69,61,61,0,0,0-22.71-29.11c-.09-.06-.18-.13-.27-.18-.39-.28-.8-.54-1.2-.8l-.35-.23-1.25-.77-1.22-.72-1-.58c-.35-.19-.7-.38-1.06-.56A61,61,0,0,0,83.76,38.7,61.12,61.12,0,0,0,73.5,43.65c-.55.33-1.08.66-1.61,1l-1,.66A61,61,0,0,0,57,58.29c-.21.26-.41.53-.61.8l-.6.8A61.44,61.44,0,0,0,47,77.12c-.14.43-.28.86-.4,1.29s-.29,1-.42,1.45A60.77,60.77,0,0,0,44,95.39c0,1.91,0,3.82.21,5.74,0,.35,0,.69.09,1s.07.69.11,1a61.79,61.79,0,0,0,3.47,14.29q.84,2.25,1.84,4.4.23.51.48,1t.51,1a60.72,60.72,0,0,0,18.69,21.84l1.14.8,1.09.74,1,.65.57.35c1.43.88,2.91,1.7,4.41,2.46.66.34,1.32.66,2,1,1.55.72,3.14,1.37,4.75,1.95.66.25,1.33.48,2,.69,1.56.51,3.15,1,4.75,1.34.66.16,1.33.31,2,.44,1.57.32,3.15.58,4.75.77.66.09,1.33.16,2,.21,1.58.15,3.16.23,4.75.24.67,0,1.34,0,2,0,1.58,0,3.17-.14,4.75-.3.67-.06,1.33-.14,2-.23,1.58-.21,3.17-.49,4.75-.84.67-.14,1.33-.29,2-.46q2.39-.6,4.75-1.4c.58-.2,1.16-.4,1.74-.62l.26-.1c1.63-.61,3.21-1.29,4.75-2,.68-.32,1.34-.66,2-1q1.89-1,3.69-2.1c.53-.32,1.06-.66,1.58-1s1-.66,1.47-1A60.8,60.8,0,0,0,156.85,129q.66-1,1.26-2.07l0,0a1.71,1.71,0,0,0,.13-.23,61.42,61.42,0,0,0,8.11-30.08C166.38,94.92,166.33,93.3,166.2,91.68Zm-9.08,34.93c-.44.77-.91,1.53-1.4,2.28a58.73,58.73,0,0,1-7.25,9.17l0,0a58.53,58.53,0,0,1-9.38,7.89c-22.94-.14-48.33-5.86-67.18-16.55,16.69,9.6,38.59,15.53,59.29,16.88H71.9A59.63,59.63,0,0,1,51.81,124l-.51-1c-.16-.33-.33-.67-.48-1q-1.11-2.34-2-4.8a60.24,60.24,0,0,1-3.37-13.76c.31.05.61.1.91.13-.15-.35-.29-.72-.43-1.08s-.27-.71-.39-1.06-.27-.77-.39-1.16h0a60.05,60.05,0,0,1,2.1-20.34l.09-.33c.11-.39.23-.79.35-1.18h0a60.29,60.29,0,0,1,8.87-17.77c.2-.27.39-.54.59-.8h0c.21-.27.41-.52.61-.79A60.11,60.11,0,0,1,70.42,46.86h0c.52-.36,1-.72,1.59-1.07l.19-.13h.2c4.51,0,46.38.16,46.48.15h0l2.17-.08-.7.07,4.19-.14H138a60,60,0,0,1,23.51,29.44,60.7,60.7,0,0,1,3.79,18.71v.07c0,.32,0,.63,0,.95s0,.68,0,1c0,.61,0,1.22,0,1.83a60.06,60.06,0,0,1-4.7,21.84l-.42,1c-.1.24-.21.48-.32.72l-.12.26A57.34,57.34,0,0,1,157.12,126.61ZM119.88,45.84l.33,0h-.37ZM45.12,100.2a60.05,60.05,0,0,1,2.1-20.34l0-.12-.94.34-.09-.22A60.77,60.77,0,0,0,44,95.39c0,1.91,0,3.82.21,5.74l1,.19.3.05c-.14-.39-.27-.77-.39-1.16Zm74.72-54.39,0,0,.33,0Zm0,0,0,0,.33,0Zm-74.72,54.4c0,.37.05.74.09,1.11l.3.05C45.37,101,45.24,100.6,45.12,100.21Zm74.72-54.4,0,0,.33,0Zm0,0,0,0,.33,0Z" style="fill:#fece2f;"/><path d="M72.2,45.65l-.19.13v-.13Z" style="fill:#fff;"/><path d="M120.21,45.8l-.33,0,0,0Z" style="fill:#fff;"/><path d="M166,97a61.32,61.32,0,0,1-2.17,13.39,116.57,116.57,0,0,1-5.61,16.22c0,.08-.07.16-.1.23l0,0c-.33.74-.66,1.43-1,2.08-3.21,6.43-5.9,8.59-7.49,9.3a2.71,2.71,0,0,1-1.54.33,5.63,5.63,0,0,0,.35-.51l0,0a58.73,58.73,0,0,0,7.25-9.17c.49-.75,1-1.51,1.4-2.28a57.34,57.34,0,0,0,2.69-5.16l.12-.26c.11-.24.22-.48.32-.72l.42-1a60.06,60.06,0,0,0,4.7-21.84c0-.61,0-1.22,0-1.83,0-.34,0-.68,0-1s0-.63,0-.95V93.8a60.7,60.7,0,0,0-3.79-18.71A60,60,0,0,0,138,45.65H124.57l-4.19.14.7-.07h.06l2.1-.07c2.37-.07,5.44-.16,8.76-.24l.12,0h0c.46-.07,1.91-.26,3.32-.42l1.26-.14c.59,0,1.12-.1,1.48-.1.43.23.86.46,1.29.72a1.28,1.28,0,0,1,.27.16c12.1,7.08,22.93,21.77,25.64,39.82a2.38,2.38,0,0,1,.06.37,57.77,57.77,0,0,1,.56,6.37C166.1,93.77,166.09,95.38,166,97Z" style="fill:#fff;"/><path d="M47,77.12c-.14.43-.28.86-.4,1.29-.18-.33-.4-.72-.67-1.13-.13.43-.27.86-.39,1.3a61.74,61.74,0,0,0-2.34,22.33c0,.35,0,.7.09,1l.91.19.1,0c0,.35.07.69.11,1l1,.18c0-.35-.08-.69-.11-1s-.07-.68-.1-1-.06-.74-.09-1.11h0a60.05,60.05,0,0,1,2.1-20.34l.09-.33c.11-.39.23-.79.35-1.18C47.48,78,47.26,77.58,47,77.12Zm0,0c-.14.43-.28.86-.4,1.29-.18-.33-.4-.72-.67-1.13-.13.43-.27.86-.39,1.3a61.74,61.74,0,0,0-2.34,22.33c0,.35,0,.7.09,1l.91.19.1,0,1,.18c0-.34-.07-.68-.1-1s-.06-.74-.09-1.11h0a60.05,60.05,0,0,1,2.1-20.34l.09-.33c.11-.39.23-.79.35-1.18C47.48,78,47.26,77.58,47,77.12Zm0,0c-.14.43-.28.86-.4,1.29-.18-.33-.4-.72-.67-1.13-.13.43-.27.86-.39,1.3a61.74,61.74,0,0,0-2.34,22.33c0,.35,0,.7.09,1l.91.19.1,0,1,.18c0-.34-.07-.68-.1-1s-.06-.74-.09-1.11h0a60.05,60.05,0,0,1,2.1-20.34l.09-.33c.11-.39.23-.79.35-1.18C47.48,78,47.26,77.58,47,77.12Zm-1.85,23.09h0a60.05,60.05,0,0,1,2.1-20.34l0-.12-.94.34-.09-.22A60.77,60.77,0,0,0,44,95.39c0,1.91,0,3.82.21,5.74l-.1,0,.09,1,.1,0,1,.18c0-.34-.07-.68-.1-1S45.15,100.58,45.12,100.21Zm122.25-5.32v-.06c0-.34,0-.68,0-1-.06-1.58-.19-3.17-.37-4.75a62.71,62.71,0,0,0-3.55-14.66,61.84,61.84,0,0,0-23.59-29.95l-1-.62s0,0,0,0c-.33-.23-.67-.44-1-.64-.8-.5-1.61-1-2.43-1.43l-1.08-.58-1.11-.58c-.74-.37-1.48-.73-2.24-1.08-1.2-.55-2.42-1.06-3.64-1.53a61.61,61.61,0,0,0-43.92-.2,62.59,62.59,0,0,0-10.54,5.1h0l-1,.63h0l-1,.64A61.6,61.6,0,0,0,56.24,57.66c-.21.26-.41.52-.61.79l-.6.81A62.75,62.75,0,0,0,46.29,76.1l-.39,1.18c-.13.43-.27.86-.39,1.3a61.74,61.74,0,0,0-2.34,22.33c0,.35,0,.7.09,1s.07.71.1,1.06a62.53,62.53,0,0,0,3.55,14.83c.51,1.35,1.05,2.68,1.65,4,.15.34.31.69.47,1s.33.69.5,1a61.71,61.71,0,0,0,21,23.9c.33.23.66.45,1,.66s.67.43,1,.63c1.64,1,3.34,1.95,5.08,2.82q.87.43,1.77.84l.23.1c1.56.71,3.15,1.35,4.75,1.92.66.24,1.33.47,2,.67q2.35.78,4.75,1.33c.67.16,1.33.31,2,.44,1.57.32,3.16.58,4.75.77.66.08,1.33.15,2,.2,1.58.14,3.17.22,4.75.23h.61l1.39,0c1.59,0,3.17-.13,4.75-.29.67-.06,1.34-.14,2-.23,1.59-.21,3.18-.49,4.75-.83.67-.14,1.33-.29,2-.45,1.59-.4,3.18-.86,4.75-1.39.67-.22,1.34-.45,2-.7l.09,0c1.59-.59,3.14-1.25,4.66-2,.68-.31,1.34-.64,2-1,1.81-.92,3.56-1.93,5.25-3,.34-.21.67-.43,1-.66s.67-.45,1-.68A61.33,61.33,0,0,0,158,129c.48-.79.95-1.59,1.4-2.4.83-1.48,1.6-3,2.32-4.57l.15-.34c.15-.33.3-.67.44-1s.29-.66.42-1a61.81,61.81,0,0,0,4.62-23.81C167.39,95.53,167.38,95.21,167.37,94.89Zm-11.65,34a58.73,58.73,0,0,1-7.25,9.17l0,0a58.53,58.53,0,0,1-9.38,7.89l-.49.33-.4.26h0c-.38.25-.76.5-1.15.73-.55.35-1.11.68-1.67,1s-1.15.66-1.74,1-1.33.7-2,1c-1.54.75-3.13,1.43-4.75,2-.2.09-.4.16-.61.24-.46.17-.92.34-1.39.49-1.57.55-3.16,1-4.75,1.44-.67.17-1.33.33-2,.47-1.58.36-3.16.64-4.75.86-.67.09-1.33.17-2,.24-1.58.17-3.17.27-4.75.31h-2c-1.59,0-3.17-.09-4.75-.23-.67-.06-1.34-.14-2-.22-1.59-.2-3.18-.46-4.75-.8-.67-.13-1.34-.28-2-.44q-2.4-.59-4.75-1.37c-.67-.22-1.34-.46-2-.71-1.4-.51-2.78-1.09-4.15-1.71l-.6-.28c-.68-.32-1.34-.65-2-1-.83-.43-1.65-.87-2.46-1.34-.23-.13-.46-.26-.69-.41l-1-.59c-.53-.32-1-.65-1.56-1A59.63,59.63,0,0,1,51.81,124l-.51-1c-.16-.33-.33-.67-.48-1q-1.11-2.34-2-4.8a60.24,60.24,0,0,1-3.37-13.76c0-.35-.08-.69-.11-1s-.07-.68-.1-1-.06-.74-.09-1.11h0a60.05,60.05,0,0,1,2.1-20.34l.09-.33c.11-.39.23-.79.35-1.18h0a60.29,60.29,0,0,1,8.87-17.77c.2-.27.39-.54.59-.8h0c.21-.27.41-.52.61-.79A60.11,60.11,0,0,1,70.42,46.86h0c.52-.36,1-.72,1.59-1.07l.19-.13c.52-.35,1-.68,1.59-1s1.11-.67,1.68-1a60.84,60.84,0,0,1,8.64-4,59.69,59.69,0,0,1,44,.81c.68.27,1.35.56,2,.87,1.13.52,2.25,1.07,3.34,1.66.35.18.69.37,1,.56a1.43,1.43,0,0,1,.21.12c.27.14.52.29.78.45l.71.41h0l.2.14.3.18,1.3.82a60,60,0,0,1,23.51,29.44,60.7,60.7,0,0,1,3.79,18.71v.07c0,.32,0,.63,0,.95s0,.68,0,1c0,.61,0,1.22,0,1.83a60.06,60.06,0,0,1-4.7,21.84l-.42,1c-.1.24-.21.48-.32.72l-.12.26a57.34,57.34,0,0,1-2.69,5.16C156.68,127.38,156.21,128.14,155.72,128.89ZM45.12,100.21h0a60.05,60.05,0,0,1,2.1-20.34l0-.12-.94.34-.09-.22a11.4,11.4,0,0,0-.64-1.28,61.74,61.74,0,0,0-2.34,22.33c0,.35,0,.7.09,1l.91.19.1,0,1,.18c0-.34-.07-.68-.1-1S45.15,100.58,45.12,100.21ZM47,77.12c-.14.43-.28.86-.4,1.29-.18-.33-.4-.72-.67-1.13-.13.43-.27.86-.39,1.3a61.74,61.74,0,0,0-2.34,22.33c0,.35,0,.7.09,1l.91.19.1,0,1,.18c0-.34-.07-.68-.1-1s-.06-.74-.09-1.11h0a60.05,60.05,0,0,1,2.1-20.34l.09-.33c.11-.39.23-.79.35-1.18C47.48,78,47.26,77.58,47,77.12Zm0,0c-.14.43-.28.86-.4,1.29-.18-.33-.4-.72-.67-1.13-.13.43-.27.86-.39,1.3a61.74,61.74,0,0,0-2.34,22.33c0,.35,0,.7.09,1l.91.19.1,0c0,.35.07.69.11,1l1,.18c0-.35-.08-.69-.11-1s-.07-.68-.1-1-.06-.74-.09-1.11h0a60.05,60.05,0,0,1,2.1-20.34l.09-.33c.11-.39.23-.79.35-1.18C47.48,78,47.26,77.58,47,77.12Z" style="fill:#1a1a1a;"/><path d="M165.38,94.82c0-.32,0-.63,0-.95V93.8a60.7,60.7,0,0,0-3.79-18.71A60,60,0,0,0,138,45.65H124.57l-4.19.14.7-.07-2.17.08h0c-.1,0-42-.15-46.48-.15h-.2l-.19.13C72,47.42,70.55,58,100.84,56c24-1.63,37.46,10.48,44.48,26a66.33,66.33,0,0,1,2.93,7.75,93.27,93.27,0,0,1,3.28,36.07c-.08.81-.18,1.6-.29,2.35-.67,4.64-1.69,8.18-2.8,10l0,0a58.73,58.73,0,0,0,7.25-9.17c.49-.75,1-1.51,1.4-2.28a57.34,57.34,0,0,0,2.69-5.16l.12-.26c.11-.24.22-.48.32-.72l.42-1a60.06,60.06,0,0,0,4.7-21.84c0-.61,0-1.22,0-1.83C165.39,95.5,165.38,95.16,165.38,94.82Zm-45.5-49,0,0h.37Z" style="fill:#fff;"/><ellipse cx="105.84" cy="8.95" rx="7.93" ry="7.94" transform="translate(3.55 37.55) rotate(-20.45)" style="fill:#fece2f;"/><path d="M113.84,5a2.35,2.35,0,0,1-.2.56,2.87,2.87,0,0,1-.39.59,2.7,2.7,0,0,1-.82.72,5,5,0,0,1-4.84,0,4.7,4.7,0,0,1-2.9-4.82,2.93,2.93,0,0,1,.26-.79,2.4,2.4,0,0,1,.16-.27,3,3,0,0,1,1-1,9,9,0,0,1,7.7,5Z" style="fill:#fff;"/><path d="M114.2,5.83c-.11-.28-.23-.56-.36-.83a9,9,0,0,0-7.7-5,8.62,8.62,0,0,0-3.43.56,8.94,8.94,0,0,0-5.24,11.5A8.94,8.94,0,0,0,109,17.33a4.25,4.25,0,0,0,.49-.21A8.93,8.93,0,0,0,114.2,5.83Zm-5.94,9.62a6.94,6.94,0,0,1-8.73-9.39,6.87,6.87,0,0,1,3.88-3.62,6.55,6.55,0,0,1,1.28-.34,6.27,6.27,0,0,1,1.14-.1,6.94,6.94,0,0,1,2.88.64,6.87,6.87,0,0,1,3.61,3.89,3.38,3.38,0,0,1,.11.34,6.9,6.9,0,0,1-4.17,8.58Z" style="fill:#1a1a1a;"/><path d="M71.51,147.31h68.33a0,0,0,0,1,0,0V168a2,2,0,0,1-2,2H73.51a2,2,0,0,1-2-2V147.31A0,0,0,0,1,71.51,147.31Z" style="fill:#fece2f;"/><path d="M70.51,146.31V168a3,3,0,0,0,3,3h64.33a3,3,0,0,0,3-3V146.31ZM138.84,168a1,1,0,0,1-1,1H73.51a1,1,0,0,1-1-1V148.31h66.33Z" style="fill:#1a1a1a;"/><path d="M134.51,43.81c0,.28,0,.56,0,.84H71.86c0-.28,0-.56,0-.84,0-13.34,14-24.16,31.33-24.16S134.51,30.47,134.51,43.81Z" style="fill:#fece2f;"/><path d="M135.49,42.93q0-.6-.09-1.2c-1.19-11.25-11.94-20.43-25.9-22.6a42.37,42.37,0,0,0-6.33-.48A40.24,40.24,0,0,0,93,19.94l-.06,0a34.8,34.8,0,0,0-3.75,1.17l0,0c-9.57,3.61-16.52,10.79-18,19.29a7.55,7.55,0,0,0-.13.83c0,.29-.07.59-.09.89s0,.6-.06.9,0,.46,0,.69,0,.26,0,.39,0,.37,0,.55l0,.62v.34h64.55l0-.68v-.42c0-.15,0-.3,0-.45a2.81,2.81,0,0,0,0-.29v-.16C135.51,43.41,135.5,43.17,135.49,42.93Zm-62.65.72c0-.27,0-.53,0-.79.49-9.3,8.21-17.21,19-20.53h0a38.32,38.32,0,0,1,11.31-1.67c15.29,0,28,8.67,30,19.92.08.4.14.81.18,1.22a11.49,11.49,0,0,1,.09,1.18c0,.22,0,.45,0,.68Z" style="fill:#1a1a1a;"/><path d="M138.84,43.75c0,.3,0,.6,0,.9H71.87q0-.45,0-.9c0-14.26,15-25.83,33.5-25.83S138.84,29.49,138.84,43.75Z" style="fill:#fece2f;"/><path d="M128.47,44.67S130,33.94,116.34,27.1C103.72,20.79,96,22,87.47,22.67c1.5-1.5,7.25-3.82,12-3.94s34.87-4,39.5,25.62C133.47,44.73,128.47,44.67,128.47,44.67Z" style="fill:#fff;"/><path d="M120.21,45.8l-.33,0,0,0Z" style="fill:#fff;"/><path d="M131.17,146.31H71.9A59.63,59.63,0,0,1,51.81,124l-.51-1c-.16-.33-.33-.67-.48-1q-1.11-2.34-2-4.8a60.24,60.24,0,0,1-3.37-13.76c.31.05.61.1.91.13h0c2.86,6.79,7.75,12.81,14,18h0c.35.3.7.59,1.06.87s.71.57,1.08.85c1.79,1.37,3.69,2.69,5.67,4,1.2.76,2.42,1.5,3.68,2.21C88.57,139,110.47,145,131.17,146.31Z" style="fill:#1a1a1a;"/><path d="M71.9,146.31H128l-7.9.24-2,0-4.75.15-2,.06-4.75.14-2,.06-4.75.14-2,.06-3.47.1-1.28,0-2,.06-4.75.14-2,.06-4.75.14-2,.06-3.15.09-1.83.06-.77,0-.33-.3-1-.89-1.14-1-9.54-8.53-2.24-2a47.72,47.72,0,0,1-7.34-11.32h0l-.47-1c-.16-.33-.31-.68-.46-1a64,64,0,0,1-5-18.68c0-.35-.08-.7-.12-1l-.09-1q-.27-3.1-.24-6.46c0,.25.08.49.13.74a32.7,32.7,0,0,0,1.15,4.81h0c.12.39.25.77.39,1.16s.25.71.39,1.06.28.73.43,1.08c-.3,0-.6-.08-.91-.13a60.24,60.24,0,0,0,3.37,13.76q.91,2.46,2,4.8c.15.34.32.68.48,1l.51,1A59.63,59.63,0,0,0,71.9,146.31Z" style="fill:#1a1a1a;"/><path d="M134.11,146.47l-6.12-.16h3.18C132.16,146.37,133.13,146.43,134.11,146.47Z" style="fill:#1a1a1a;"/><path d="M139.26,146.6l-1.11,0c-1.32,0-2.65-.05-4-.11l4,.1Z" style="fill:#1a1a1a;"/><path d="M133.33,45.41c-3.32.08-6.39.17-8.76.24l-4.19.14.7-.07h.06l.82-.07c3.81-.29,7.62-.31,10.16-.26h0Z" style="fill:#fff;"/><rect x="77.59" y="146.48" width="2" height="23.75" style="fill:#1a1a1a;"/><rect x="84.34" y="146.48" width="2" height="23.75" style="fill:#1a1a1a;"/><rect x="91.09" y="146.48" width="2" height="23.75" style="fill:#1a1a1a;"/><rect x="97.84" y="146.48" width="2" height="23.75" style="fill:#1a1a1a;"/><rect x="104.59" y="146.48" width="2" height="23.75" style="fill:#1a1a1a;"/><rect x="111.34" y="146.48" width="2" height="23.75" style="fill:#1a1a1a;"/><rect x="118.09" y="146.48" width="2" height="23.75" style="fill:#1a1a1a;"/><rect x="124.84" y="146.48" width="2" height="23.75" style="fill:#1a1a1a;"/><rect x="131.59" y="146.48" width="2" height="23.75" style="fill:#1a1a1a;"/><path d="M109.45,17.12a40,40,0,0,0-4.12-.2c-1.1,0-2.2,0-3.27.12-16.08,1.18-29,11-30.93,23.4a7.55,7.55,0,0,0-.13.83c0,.29-.07.59-.09.89s0,.6-.06.9,0,.46,0,.69,0,.26,0,.39,0,.37,0,.55l0,.62v.34h68.88v0l0-.92c0-.08,0-.17,0-.25s0-.46,0-.69C139.84,30,126.55,18.7,109.45,17.12ZM72.84,43.65c0-.26,0-.52,0-.78.39-8.56,6.48-16,15.44-20.27h0L89.59,22a40.25,40.25,0,0,1,15.74-3.12,40.85,40.85,0,0,1,4.17.21c15.72,1.54,27.95,11.69,28.33,24,0,.16,0,.33,0,.49Z" style="fill:#1a1a1a;"/><path d="M204.59,51.85l-2.78-5.1A3.41,3.41,0,0,0,198.48,45C181.16,46.68,173.3,67.39,167,89.05l-.63,2.16c-.05.16-.09.32-.14.47s-.11.33-.16.49a13,13,0,0,1-.7,1.7c0,.32,0,.63,0,.95s0,.68,0,1c0,.61,0,1.22,0,1.83A8,8,0,0,0,166,97l.36-.47a9.77,9.77,0,0,0,1-1.65,17,17,0,0,0,1.14-3c4.32-15.07,9.25-29.95,17.4-38.16A20.48,20.48,0,0,1,198.7,47.3a1.16,1.16,0,0,1,1.15.59l.66,1.21L202.62,53a1.19,1.19,0,0,1,0,1,1,1,0,0,1-.72.64,13.77,13.77,0,0,0-10.72,11.74,47.91,47.91,0,0,0-.19,6c0,13.36-.07,44.67-23.61,52.57a30.6,30.6,0,0,1-8,1.63c-.39,0-.78,0-1.17,0h-1.14c-.44.77-.91,1.53-1.4,2.28l.69.06H158a32.15,32.15,0,0,0,10.1-1.84c25.1-8.41,25.14-40.89,25.17-54.75a52.78,52.78,0,0,1,.15-5.63,11.45,11.45,0,0,1,9-9.87,3.31,3.31,0,0,0,2.25-2A3.53,3.53,0,0,0,204.59,51.85Z" style="fill:#1a1a1a;"/></g></g></g><!--ITEM 8--><g><defs><clipPath id="clip-path-id-viewbox-item-8"><rect x="0.0" y="0.0" width="280.5" height="419.5"/></clipPath></defs><g transform="translate(467.0 86.0) rotate(0.0 126.5 189.0) scale(0.9019607843137255 0.901072705601907)"><g clip-path="url(#clip-path-id-viewbox-item-8)" transform="translate(-0.0 -0.0)"><g>
	<g>
		<path d="M1.5,140.083C1.5,63.546,63.546,1.5,140.083,1.5s138.583,62.046,138.583,138.583" style="fill:#FECE2F;"/>
		<path d="M280.167,140.083h-3C277.167,64.495,215.671,3,140.083,3S3,64.495,3,140.083H0C0,62.841,62.841,0,140.083,0    S280.167,62.841,280.167,140.083z" style="fill:#1A1A1A;"/>
	</g>
	<g>
		<rect x="1.5" y="140.5" width="277.5" height="277.5" style="fill:#FECE2F;"/>
		<path d="M280.5,419.5H0V139h280.5V419.5z M3,416.5h274.5V142H3V416.5z" style="fill:#1A1A1A;"/>
	</g>
	<g>
		<rect x="0.5" y="277" width="279" height="3" style="fill:#1A1A1A;"/>
	</g>
	<g>
		<rect x="138.75" y="140.167" width="3" height="278.666" style="fill:#1A1A1A;"/>
	</g>
</g>
</g></g></g></svg>